<svg width="11" height="11" viewBox="0 0 11 11" fill="none" xmlns="http://www.w3.org/2000/svg">
<path fill-rule="evenodd" clip-rule="evenodd" d="M10.7071 1.70711C11.0976 1.31658 11.0976 0.683418 10.7071 0.292893C10.3166 -0.0976311 9.68342 -0.0976311 9.29289 0.292893L5.5 4.08579L1.70711 0.292893C1.31658 -0.097631 0.683418 -0.097631 0.292894 0.292893C-0.0976304 0.683418 -0.0976304 1.31658 0.292894 1.70711L4.08579 5.5L0.292894 9.29289C-0.0976312 9.68342 -0.0976312 10.3166 0.292894 10.7071C0.683417 11.0976 1.31658 11.0976 1.70711 10.7071L5.5 6.91421L9.29289 10.7071C9.68342 11.0976 10.3166 11.0976 10.7071 10.7071C11.0976 10.3166 11.0976 9.68342 10.7071 9.29289L6.91421 5.5L10.7071 1.70711Z" fill="#5F5D60"/>
</svg>
